<svg id="ic_Google" xmlns="http://www.w3.org/2000/svg" width="32" height="32" viewBox="0 0 32 32">
  <rect id="_google" data-name="/google" width="32" height="32" fill="none"/>
  <path id="vector" d="M9.46,13.16l-.294-.029L4.926,9.912l.027-.174A6.822,6.822,0,0,0,7.873,5.2H0V0H13.413a11.767,11.767,0,0,1,.3,2.862A13.552,13.552,0,0,1,9.46,13.16Z" transform="translate(16.287 13.449)" fill="#4285f4"/>
  <path id="vector-2" data-name="vector" d="M0,3.516l.058-.157L4.467.014,4.635,0a8.584,8.584,0,0,0,8.127,5.818,8.579,8.579,0,0,0,4.952-1.4L22.222,7.84a13.779,13.779,0,0,1-9.46,3.391A14.307,14.307,0,0,1,0,3.516Z" transform="translate(3.524 18.769)" fill="#34a853"/>
  <path id="vector-3" data-name="vector" d="M1.524,12.637a13.721,13.721,0,0,1,0-12.569L1.67,0,6.135,3.4l.008.186a8.892,8.892,0,0,0-.46,2.769,8.463,8.463,0,0,0,.476,2.769Z" transform="translate(2.001 9.647)" fill="#fbbc05"/>
  <path id="vector-4" data-name="vector" d="M4.619,11.231,0,7.715A14.307,14.307,0,0,1,12.762,0a13.879,13.879,0,0,1,9.556,3.64L18.286,7.5a8,8,0,0,0-5.524-2.085,8.62,8.62,0,0,0-8.143,5.818Z" transform="translate(3.524 2)" fill="#eb4335"/>
</svg>
